<mxfile host="app.diagrams.net" agent="Mozilla/5.0 (Windows NT 10.0; Win64; x64) AppleWebKit/537.36 (KHTML, like Gecko) Chrome/130.0.0.0 Safari/537.36" version="24.8.4">
  <diagram id="R2lEEEUBdFMjLlhIrx00" name="Page-1">
    <mxGraphModel dx="678" dy="362" grid="1" gridSize="10" guides="1" tooltips="1" connect="1" arrows="1" fold="1" page="1" pageScale="1" pageWidth="1100" pageHeight="850" math="0" shadow="0" extFonts="Permanent Marker^https://fonts.googleapis.com/css?family=Permanent+Marker">
      <root>
        <mxCell id="0" />
        <mxCell id="1" parent="0" />
        <mxCell id="Oi1S64GzBulodLDOKAPP-5" value="Airport" style="html=1;dashed=0;whiteSpace=wrap;" parent="1" vertex="1">
          <mxGeometry x="831.5" y="222" width="100" height="50" as="geometry" />
        </mxCell>
        <mxCell id="Oi1S64GzBulodLDOKAPP-35" style="edgeStyle=none;rounded=0;orthogonalLoop=1;jettySize=auto;html=1;entryX=0.25;entryY=0;entryDx=0;entryDy=0;endArrow=none;endFill=0;" parent="1" source="Oi1S64GzBulodLDOKAPP-7" target="Oi1S64GzBulodLDOKAPP-5" edge="1">
          <mxGeometry relative="1" as="geometry" />
        </mxCell>
        <mxCell id="Oi1S64GzBulodLDOKAPP-7" value="&lt;u&gt;Airport_code&lt;/u&gt;" style="ellipse;whiteSpace=wrap;html=1;align=center;" parent="1" vertex="1">
          <mxGeometry x="814" y="162" width="100" height="40" as="geometry" />
        </mxCell>
        <mxCell id="Oi1S64GzBulodLDOKAPP-36" style="edgeStyle=none;rounded=0;orthogonalLoop=1;jettySize=auto;html=1;entryX=1;entryY=0.25;entryDx=0;entryDy=0;endArrow=none;endFill=0;" parent="1" source="Oi1S64GzBulodLDOKAPP-8" target="Oi1S64GzBulodLDOKAPP-5" edge="1">
          <mxGeometry relative="1" as="geometry" />
        </mxCell>
        <mxCell id="Oi1S64GzBulodLDOKAPP-8" value="State" style="ellipse;whiteSpace=wrap;html=1;align=center;" parent="1" vertex="1">
          <mxGeometry x="921.5" y="182" width="100" height="40" as="geometry" />
        </mxCell>
        <mxCell id="UbQh1c_g0qJvPAzn56N0-3" value="Name" style="ellipse;whiteSpace=wrap;html=1;align=center;" parent="1" vertex="1">
          <mxGeometry x="956.5" y="227" width="100" height="40" as="geometry" />
        </mxCell>
        <mxCell id="UbQh1c_g0qJvPAzn56N0-4" value="City" style="ellipse;whiteSpace=wrap;html=1;align=center;" parent="1" vertex="1">
          <mxGeometry x="916.5" y="148" width="80" height="32" as="geometry" />
        </mxCell>
        <mxCell id="UbQh1c_g0qJvPAzn56N0-5" style="edgeStyle=none;rounded=0;orthogonalLoop=1;jettySize=auto;html=1;entryX=0.5;entryY=0;entryDx=0;entryDy=0;endArrow=none;endFill=0;exitX=0;exitY=1;exitDx=0;exitDy=0;" parent="1" source="UbQh1c_g0qJvPAzn56N0-4" target="Oi1S64GzBulodLDOKAPP-5" edge="1">
          <mxGeometry relative="1" as="geometry">
            <mxPoint x="851.5" y="202" as="sourcePoint" />
            <mxPoint x="866.5" y="232" as="targetPoint" />
          </mxGeometry>
        </mxCell>
        <mxCell id="UbQh1c_g0qJvPAzn56N0-9" value="Airplane" style="html=1;dashed=0;whiteSpace=wrap;" parent="1" vertex="1">
          <mxGeometry x="534" y="222" width="100" height="50" as="geometry" />
        </mxCell>
        <mxCell id="UbQh1c_g0qJvPAzn56N0-10" style="edgeStyle=none;rounded=0;orthogonalLoop=1;jettySize=auto;html=1;entryX=0.25;entryY=0;entryDx=0;entryDy=0;endArrow=none;endFill=0;" parent="1" source="UbQh1c_g0qJvPAzn56N0-11" target="UbQh1c_g0qJvPAzn56N0-9" edge="1">
          <mxGeometry relative="1" as="geometry" />
        </mxCell>
        <mxCell id="UbQh1c_g0qJvPAzn56N0-11" value="&lt;u&gt;Airplane_id&lt;/u&gt;" style="ellipse;whiteSpace=wrap;html=1;align=center;" parent="1" vertex="1">
          <mxGeometry x="494" y="162" width="100" height="40" as="geometry" />
        </mxCell>
        <mxCell id="UbQh1c_g0qJvPAzn56N0-12" style="edgeStyle=none;rounded=0;orthogonalLoop=1;jettySize=auto;html=1;entryX=1;entryY=0.25;entryDx=0;entryDy=0;endArrow=none;endFill=0;" parent="1" source="UbQh1c_g0qJvPAzn56N0-13" target="UbQh1c_g0qJvPAzn56N0-9" edge="1">
          <mxGeometry relative="1" as="geometry" />
        </mxCell>
        <mxCell id="UbQh1c_g0qJvPAzn56N0-13" value="Total_no_of_seats" style="ellipse;whiteSpace=wrap;html=1;align=center;" parent="1" vertex="1">
          <mxGeometry x="614" y="172" width="140" height="40" as="geometry" />
        </mxCell>
        <mxCell id="UbQh1c_g0qJvPAzn56N0-14" value="Airplane_type" style="whiteSpace=wrap;html=1;align=center;rounded=0;" parent="1" vertex="1">
          <mxGeometry x="304" y="227" width="100" height="40" as="geometry" />
        </mxCell>
        <mxCell id="UbQh1c_g0qJvPAzn56N0-25" style="edgeStyle=none;rounded=0;orthogonalLoop=1;jettySize=auto;html=1;entryX=0.25;entryY=0;entryDx=0;entryDy=0;endArrow=none;endFill=0;" parent="1" source="UbQh1c_g0qJvPAzn56N0-26" target="UbQh1c_g0qJvPAzn56N0-14" edge="1">
          <mxGeometry relative="1" as="geometry" />
        </mxCell>
        <mxCell id="UbQh1c_g0qJvPAzn56N0-26" value="&lt;u&gt;Type_name&amp;nbsp;&lt;/u&gt;" style="ellipse;whiteSpace=wrap;html=1;align=center;" parent="1" vertex="1">
          <mxGeometry x="244" y="140" width="100" height="40" as="geometry" />
        </mxCell>
        <mxCell id="UbQh1c_g0qJvPAzn56N0-27" style="edgeStyle=none;rounded=0;orthogonalLoop=1;jettySize=auto;html=1;endArrow=none;endFill=0;entryX=0.75;entryY=0;entryDx=0;entryDy=0;" parent="1" source="UbQh1c_g0qJvPAzn56N0-28" target="UbQh1c_g0qJvPAzn56N0-14" edge="1">
          <mxGeometry relative="1" as="geometry">
            <mxPoint x="424" y="327" as="targetPoint" />
          </mxGeometry>
        </mxCell>
        <mxCell id="UbQh1c_g0qJvPAzn56N0-28" value="Max_seats" style="ellipse;whiteSpace=wrap;html=1;align=center;" parent="1" vertex="1">
          <mxGeometry x="404" y="148" width="80" height="40" as="geometry" />
        </mxCell>
        <mxCell id="UbQh1c_g0qJvPAzn56N0-29" value="Company&amp;nbsp;" style="ellipse;whiteSpace=wrap;html=1;align=center;" parent="1" vertex="1">
          <mxGeometry x="324" y="172" width="80" height="35" as="geometry" />
        </mxCell>
        <mxCell id="UbQh1c_g0qJvPAzn56N0-30" style="edgeStyle=none;rounded=0;orthogonalLoop=1;jettySize=auto;html=1;endArrow=none;endFill=0;exitX=0.5;exitY=1;exitDx=0;exitDy=0;entryX=0.5;entryY=0;entryDx=0;entryDy=0;" parent="1" source="UbQh1c_g0qJvPAzn56N0-29" target="UbQh1c_g0qJvPAzn56N0-14" edge="1">
          <mxGeometry relative="1" as="geometry">
            <mxPoint x="334" y="297" as="sourcePoint" />
            <mxPoint x="374" y="307" as="targetPoint" />
          </mxGeometry>
        </mxCell>
        <mxCell id="UbQh1c_g0qJvPAzn56N0-31" value="Flight" style="html=1;dashed=0;whiteSpace=wrap;" parent="1" vertex="1">
          <mxGeometry x="391.5" y="407" width="100" height="50" as="geometry" />
        </mxCell>
        <mxCell id="UbQh1c_g0qJvPAzn56N0-32" style="edgeStyle=none;rounded=0;orthogonalLoop=1;jettySize=auto;html=1;entryX=0.25;entryY=0;entryDx=0;entryDy=0;endArrow=none;endFill=0;" parent="1" source="UbQh1c_g0qJvPAzn56N0-33" target="UbQh1c_g0qJvPAzn56N0-31" edge="1">
          <mxGeometry relative="1" as="geometry" />
        </mxCell>
        <mxCell id="UbQh1c_g0qJvPAzn56N0-33" value="&lt;u&gt;Number&lt;/u&gt;" style="ellipse;whiteSpace=wrap;html=1;align=center;" parent="1" vertex="1">
          <mxGeometry x="341.5" y="337" width="100" height="40" as="geometry" />
        </mxCell>
        <mxCell id="UbQh1c_g0qJvPAzn56N0-34" style="edgeStyle=none;rounded=0;orthogonalLoop=1;jettySize=auto;html=1;entryX=1;entryY=0.25;entryDx=0;entryDy=0;endArrow=none;endFill=0;" parent="1" source="UbQh1c_g0qJvPAzn56N0-35" target="UbQh1c_g0qJvPAzn56N0-31" edge="1">
          <mxGeometry relative="1" as="geometry" />
        </mxCell>
        <mxCell id="UbQh1c_g0qJvPAzn56N0-35" value="Weekdays" style="ellipse;whiteSpace=wrap;html=1;align=center;" parent="1" vertex="1">
          <mxGeometry x="471.5" y="357" width="80" height="40" as="geometry" />
        </mxCell>
        <mxCell id="UbQh1c_g0qJvPAzn56N0-36" value="Airline&amp;nbsp;" style="ellipse;whiteSpace=wrap;html=1;align=center;" parent="1" vertex="1">
          <mxGeometry x="434.5" y="317" width="100" height="40" as="geometry" />
        </mxCell>
        <mxCell id="UbQh1c_g0qJvPAzn56N0-37" style="edgeStyle=none;rounded=0;orthogonalLoop=1;jettySize=auto;html=1;entryX=0.5;entryY=0;entryDx=0;entryDy=0;endArrow=none;endFill=0;exitX=0;exitY=1;exitDx=0;exitDy=0;" parent="1" source="UbQh1c_g0qJvPAzn56N0-36" target="UbQh1c_g0qJvPAzn56N0-31" edge="1">
          <mxGeometry relative="1" as="geometry">
            <mxPoint x="879" y="372" as="sourcePoint" />
            <mxPoint x="894" y="402" as="targetPoint" />
          </mxGeometry>
        </mxCell>
        <mxCell id="YCbnCfXl5ar4kh1Ainzk-22" style="edgeStyle=orthogonalEdgeStyle;rounded=0;orthogonalLoop=1;jettySize=auto;html=1;entryX=0.5;entryY=1;entryDx=0;entryDy=0;endArrow=none;endFill=0;" parent="1" source="UbQh1c_g0qJvPAzn56N0-38" target="YCbnCfXl5ar4kh1Ainzk-15" edge="1">
          <mxGeometry relative="1" as="geometry" />
        </mxCell>
        <mxCell id="YCbnCfXl5ar4kh1Ainzk-23" value="1" style="edgeLabel;html=1;align=center;verticalAlign=middle;resizable=0;points=[];" parent="YCbnCfXl5ar4kh1Ainzk-22" vertex="1" connectable="0">
          <mxGeometry x="-0.7615" y="-2" relative="1" as="geometry">
            <mxPoint x="-10" y="-3" as="offset" />
          </mxGeometry>
        </mxCell>
        <mxCell id="YCbnCfXl5ar4kh1Ainzk-26" style="edgeStyle=orthogonalEdgeStyle;rounded=0;orthogonalLoop=1;jettySize=auto;html=1;exitX=1;exitY=0.25;exitDx=0;exitDy=0;entryX=0.5;entryY=1;entryDx=0;entryDy=0;endArrow=none;endFill=0;" parent="1" source="UbQh1c_g0qJvPAzn56N0-38" target="YCbnCfXl5ar4kh1Ainzk-24" edge="1">
          <mxGeometry relative="1" as="geometry" />
        </mxCell>
        <mxCell id="YCbnCfXl5ar4kh1Ainzk-27" value="1" style="edgeLabel;html=1;align=center;verticalAlign=middle;resizable=0;points=[];" parent="YCbnCfXl5ar4kh1Ainzk-26" vertex="1" connectable="0">
          <mxGeometry x="-0.4827" y="2" relative="1" as="geometry">
            <mxPoint x="-9" as="offset" />
          </mxGeometry>
        </mxCell>
        <mxCell id="UbQh1c_g0qJvPAzn56N0-38" value="Flight Leg" style="html=1;dashed=0;whiteSpace=wrap;" parent="1" vertex="1">
          <mxGeometry x="709" y="407" width="100" height="50" as="geometry" />
        </mxCell>
        <mxCell id="UbQh1c_g0qJvPAzn56N0-39" style="edgeStyle=none;rounded=0;orthogonalLoop=1;jettySize=auto;html=1;entryX=0.25;entryY=0;entryDx=0;entryDy=0;endArrow=none;endFill=0;" parent="1" source="UbQh1c_g0qJvPAzn56N0-40" target="UbQh1c_g0qJvPAzn56N0-38" edge="1">
          <mxGeometry relative="1" as="geometry" />
        </mxCell>
        <mxCell id="UbQh1c_g0qJvPAzn56N0-40" value="Scheduled_dep_time&amp;nbsp;" style="ellipse;whiteSpace=wrap;html=1;align=center;" parent="1" vertex="1">
          <mxGeometry x="576.5" y="357" width="140" height="50" as="geometry" />
        </mxCell>
        <mxCell id="UbQh1c_g0qJvPAzn56N0-41" style="edgeStyle=none;rounded=0;orthogonalLoop=1;jettySize=auto;html=1;entryX=1;entryY=0.75;entryDx=0;entryDy=0;endArrow=none;endFill=0;exitX=0;exitY=0.5;exitDx=0;exitDy=0;" parent="1" source="YCbnCfXl5ar4kh1Ainzk-11" target="UbQh1c_g0qJvPAzn56N0-38" edge="1">
          <mxGeometry relative="1" as="geometry">
            <mxPoint x="644.000000000003" y="451.9999999999999" as="sourcePoint" />
          </mxGeometry>
        </mxCell>
        <mxCell id="UbQh1c_g0qJvPAzn56N0-44" style="edgeStyle=none;rounded=0;orthogonalLoop=1;jettySize=auto;html=1;entryX=0;entryY=0.75;entryDx=0;entryDy=0;endArrow=none;endFill=0;exitX=1;exitY=0.5;exitDx=0;exitDy=0;" parent="1" source="YCbnCfXl5ar4kh1Ainzk-21" target="UbQh1c_g0qJvPAzn56N0-38" edge="1">
          <mxGeometry relative="1" as="geometry">
            <mxPoint x="824.5" y="352" as="sourcePoint" />
            <mxPoint x="599" y="477" as="targetPoint" />
          </mxGeometry>
        </mxCell>
        <mxCell id="UbQh1c_g0qJvPAzn56N0-46" value="DEPARTURE_AIRPORT" style="ellipse;whiteSpace=wrap;html=1;align=center;" parent="1" vertex="1">
          <mxGeometry x="646.5" y="297" width="147.5" height="55" as="geometry" />
        </mxCell>
        <mxCell id="UbQh1c_g0qJvPAzn56N0-48" style="edgeStyle=none;rounded=0;orthogonalLoop=1;jettySize=auto;html=1;entryX=0.5;entryY=0;entryDx=0;entryDy=0;endArrow=none;endFill=0;exitX=0.5;exitY=1;exitDx=0;exitDy=0;" parent="1" source="UbQh1c_g0qJvPAzn56N0-46" target="UbQh1c_g0qJvPAzn56N0-38" edge="1">
          <mxGeometry relative="1" as="geometry">
            <mxPoint x="634" y="417" as="sourcePoint" />
            <mxPoint x="624" y="477" as="targetPoint" />
          </mxGeometry>
        </mxCell>
        <mxCell id="UbQh1c_g0qJvPAzn56N0-49" value="Scheduled_arr_time" style="ellipse;whiteSpace=wrap;html=1;align=center;" parent="1" vertex="1">
          <mxGeometry x="754" y="477" width="120" height="45" as="geometry" />
        </mxCell>
        <mxCell id="UbQh1c_g0qJvPAzn56N0-51" style="edgeStyle=none;rounded=0;orthogonalLoop=1;jettySize=auto;html=1;entryX=0.75;entryY=1;entryDx=0;entryDy=0;endArrow=none;endFill=0;exitX=0.5;exitY=0;exitDx=0;exitDy=0;" parent="1" source="UbQh1c_g0qJvPAzn56N0-49" target="UbQh1c_g0qJvPAzn56N0-38" edge="1">
          <mxGeometry relative="1" as="geometry">
            <mxPoint x="707" y="467" as="sourcePoint" />
            <mxPoint x="649" y="477" as="targetPoint" />
          </mxGeometry>
        </mxCell>
        <mxCell id="UbQh1c_g0qJvPAzn56N0-84" value="Leg Instance" style="html=1;dashed=0;whiteSpace=wrap;shape=ext;margin=3;double=1;" parent="1" vertex="1">
          <mxGeometry x="658.5" y="592" width="100" height="50" as="geometry" />
        </mxCell>
        <mxCell id="UbQh1c_g0qJvPAzn56N0-85" style="edgeStyle=none;rounded=0;orthogonalLoop=1;jettySize=auto;html=1;entryX=0;entryY=0.25;entryDx=0;entryDy=0;endArrow=none;endFill=0;" parent="1" source="UbQh1c_g0qJvPAzn56N0-86" target="UbQh1c_g0qJvPAzn56N0-84" edge="1">
          <mxGeometry relative="1" as="geometry" />
        </mxCell>
        <mxCell id="UbQh1c_g0qJvPAzn56N0-86" value="Arr_time&amp;nbsp;" style="ellipse;whiteSpace=wrap;html=1;align=center;" parent="1" vertex="1">
          <mxGeometry x="575.75" y="552" width="87.5" height="40" as="geometry" />
        </mxCell>
        <mxCell id="UbQh1c_g0qJvPAzn56N0-88" value="Date" style="ellipse;whiteSpace=wrap;html=1;align=center;" parent="1" vertex="1">
          <mxGeometry x="612" y="514.5" width="75" height="25" as="geometry" />
        </mxCell>
        <mxCell id="UbQh1c_g0qJvPAzn56N0-89" style="edgeStyle=none;rounded=0;orthogonalLoop=1;jettySize=auto;html=1;entryX=0.25;entryY=0;entryDx=0;entryDy=0;endArrow=none;endFill=0;exitX=0.5;exitY=1;exitDx=0;exitDy=0;" parent="1" source="UbQh1c_g0qJvPAzn56N0-88" target="UbQh1c_g0qJvPAzn56N0-84" edge="1">
          <mxGeometry relative="1" as="geometry">
            <mxPoint x="571.5" y="617" as="sourcePoint" />
            <mxPoint x="586.5" y="647" as="targetPoint" />
          </mxGeometry>
        </mxCell>
        <mxCell id="UbQh1c_g0qJvPAzn56N0-91" value="Dep_time&amp;nbsp;" style="ellipse;whiteSpace=wrap;html=1;align=center;" parent="1" vertex="1">
          <mxGeometry x="799" y="542" width="87.5" height="40" as="geometry" />
        </mxCell>
        <mxCell id="UbQh1c_g0qJvPAzn56N0-92" style="edgeStyle=none;rounded=0;orthogonalLoop=1;jettySize=auto;html=1;entryX=1;entryY=0.25;entryDx=0;entryDy=0;endArrow=none;endFill=0;exitX=0;exitY=1;exitDx=0;exitDy=0;" parent="1" source="UbQh1c_g0qJvPAzn56N0-91" target="UbQh1c_g0qJvPAzn56N0-84" edge="1">
          <mxGeometry relative="1" as="geometry">
            <mxPoint x="622" y="587" as="sourcePoint" />
            <mxPoint x="612" y="647" as="targetPoint" />
          </mxGeometry>
        </mxCell>
        <mxCell id="UbQh1c_g0qJvPAzn56N0-93" value="&lt;div style=&quot;text-align: left;&quot;&gt;No_of_avail_seats&lt;/div&gt;" style="ellipse;whiteSpace=wrap;html=1;align=center;" parent="1" vertex="1">
          <mxGeometry x="779.5" y="592" width="114.5" height="50" as="geometry" />
        </mxCell>
        <mxCell id="UbQh1c_g0qJvPAzn56N0-95" style="edgeStyle=none;rounded=0;orthogonalLoop=1;jettySize=auto;html=1;entryX=1;entryY=0.5;entryDx=0;entryDy=0;endArrow=none;endFill=0;exitX=0;exitY=0.5;exitDx=0;exitDy=0;" parent="1" source="UbQh1c_g0qJvPAzn56N0-93" target="UbQh1c_g0qJvPAzn56N0-84" edge="1">
          <mxGeometry relative="1" as="geometry">
            <mxPoint x="683" y="627" as="sourcePoint" />
            <mxPoint x="637" y="647" as="targetPoint" />
          </mxGeometry>
        </mxCell>
        <mxCell id="UbQh1c_g0qJvPAzn56N0-96" value="Reservation" style="html=1;dashed=0;whiteSpace=wrap;shape=ext;margin=3;double=1;" parent="1" vertex="1">
          <mxGeometry x="389" y="592" width="100" height="50" as="geometry" />
        </mxCell>
        <mxCell id="UbQh1c_g0qJvPAzn56N0-97" style="edgeStyle=none;rounded=0;orthogonalLoop=1;jettySize=auto;html=1;entryX=0.25;entryY=0;entryDx=0;entryDy=0;endArrow=none;endFill=0;" parent="1" source="UbQh1c_g0qJvPAzn56N0-98" target="UbQh1c_g0qJvPAzn56N0-96" edge="1">
          <mxGeometry relative="1" as="geometry" />
        </mxCell>
        <mxCell id="UbQh1c_g0qJvPAzn56N0-98" value="Seat_no" style="ellipse;whiteSpace=wrap;html=1;align=center;" parent="1" vertex="1">
          <mxGeometry x="339" y="522" width="100" height="40" as="geometry" />
        </mxCell>
        <mxCell id="UbQh1c_g0qJvPAzn56N0-99" style="edgeStyle=none;rounded=0;orthogonalLoop=1;jettySize=auto;html=1;entryX=1;entryY=0.25;entryDx=0;entryDy=0;endArrow=none;endFill=0;" parent="1" source="UbQh1c_g0qJvPAzn56N0-100" target="UbQh1c_g0qJvPAzn56N0-96" edge="1">
          <mxGeometry relative="1" as="geometry" />
        </mxCell>
        <mxCell id="UbQh1c_g0qJvPAzn56N0-100" value="Cphone" style="ellipse;whiteSpace=wrap;html=1;align=center;" parent="1" vertex="1">
          <mxGeometry x="469" y="542" width="80" height="40" as="geometry" />
        </mxCell>
        <mxCell id="UbQh1c_g0qJvPAzn56N0-101" value="Customer_name" style="ellipse;whiteSpace=wrap;html=1;align=center;" parent="1" vertex="1">
          <mxGeometry x="432" y="502" width="100" height="40" as="geometry" />
        </mxCell>
        <mxCell id="UbQh1c_g0qJvPAzn56N0-102" style="edgeStyle=none;rounded=0;orthogonalLoop=1;jettySize=auto;html=1;entryX=0.5;entryY=0;entryDx=0;entryDy=0;endArrow=none;endFill=0;exitX=0;exitY=1;exitDx=0;exitDy=0;" parent="1" source="UbQh1c_g0qJvPAzn56N0-101" target="UbQh1c_g0qJvPAzn56N0-96" edge="1">
          <mxGeometry relative="1" as="geometry">
            <mxPoint x="409" y="572" as="sourcePoint" />
            <mxPoint x="424" y="602" as="targetPoint" />
          </mxGeometry>
        </mxCell>
        <mxCell id="UbQh1c_g0qJvPAzn56N0-103" value="Fare" style="html=1;dashed=0;whiteSpace=wrap;" parent="1" vertex="1">
          <mxGeometry x="144" y="407" width="100" height="50" as="geometry" />
        </mxCell>
        <mxCell id="UbQh1c_g0qJvPAzn56N0-104" style="edgeStyle=none;rounded=0;orthogonalLoop=1;jettySize=auto;html=1;entryX=0.25;entryY=0;entryDx=0;entryDy=0;endArrow=none;endFill=0;" parent="1" source="UbQh1c_g0qJvPAzn56N0-105" target="UbQh1c_g0qJvPAzn56N0-103" edge="1">
          <mxGeometry relative="1" as="geometry" />
        </mxCell>
        <mxCell id="UbQh1c_g0qJvPAzn56N0-105" value="&lt;u&gt;Code&lt;/u&gt;" style="ellipse;whiteSpace=wrap;html=1;align=center;" parent="1" vertex="1">
          <mxGeometry x="134" y="338.25" width="62" height="30" as="geometry" />
        </mxCell>
        <mxCell id="UbQh1c_g0qJvPAzn56N0-106" style="edgeStyle=none;rounded=0;orthogonalLoop=1;jettySize=auto;html=1;entryX=0.75;entryY=0;entryDx=0;entryDy=0;endArrow=none;endFill=0;exitX=0.5;exitY=1;exitDx=0;exitDy=0;" parent="1" source="UbQh1c_g0qJvPAzn56N0-109" target="UbQh1c_g0qJvPAzn56N0-103" edge="1">
          <mxGeometry relative="1" as="geometry">
            <mxPoint x="257" y="217.25" as="sourcePoint" />
          </mxGeometry>
        </mxCell>
        <mxCell id="UbQh1c_g0qJvPAzn56N0-107" value="Restrictions" style="ellipse;whiteSpace=wrap;html=1;align=center;" parent="1" vertex="1">
          <mxGeometry x="164" y="305.75" width="70" height="30" as="geometry" />
        </mxCell>
        <mxCell id="UbQh1c_g0qJvPAzn56N0-108" style="edgeStyle=none;rounded=0;orthogonalLoop=1;jettySize=auto;html=1;entryX=0.5;entryY=0;entryDx=0;entryDy=0;endArrow=none;endFill=0;exitX=0.5;exitY=1;exitDx=0;exitDy=0;" parent="1" source="UbQh1c_g0qJvPAzn56N0-107" target="UbQh1c_g0qJvPAzn56N0-103" edge="1">
          <mxGeometry relative="1" as="geometry">
            <mxPoint x="166" y="208.25" as="sourcePoint" />
            <mxPoint x="181" y="238.25" as="targetPoint" />
          </mxGeometry>
        </mxCell>
        <mxCell id="UbQh1c_g0qJvPAzn56N0-109" value="Amount" style="ellipse;whiteSpace=wrap;html=1;align=center;" parent="1" vertex="1">
          <mxGeometry x="214" y="333.25" width="65" height="40" as="geometry" />
        </mxCell>
        <mxCell id="UbQh1c_g0qJvPAzn56N0-111" style="edgeStyle=none;rounded=0;orthogonalLoop=1;jettySize=auto;html=1;entryX=1;entryY=0.5;entryDx=0;entryDy=0;endArrow=none;endFill=0;exitX=0;exitY=0.5;exitDx=0;exitDy=0;" parent="1" source="UbQh1c_g0qJvPAzn56N0-3" target="Oi1S64GzBulodLDOKAPP-5" edge="1">
          <mxGeometry relative="1" as="geometry">
            <mxPoint x="959.5" y="230" as="sourcePoint" />
            <mxPoint x="941.5" y="245" as="targetPoint" />
          </mxGeometry>
        </mxCell>
        <mxCell id="UbQh1c_g0qJvPAzn56N0-113" style="edgeStyle=none;rounded=0;orthogonalLoop=1;jettySize=auto;html=1;entryX=1;entryY=0.5;entryDx=0;entryDy=0;endArrow=none;endFill=0;exitX=0;exitY=0.5;exitDx=0;exitDy=0;" parent="1" source="UbQh1c_g0qJvPAzn56N0-114" target="UbQh1c_g0qJvPAzn56N0-9" edge="1">
          <mxGeometry relative="1" as="geometry">
            <mxPoint x="672" y="221" as="sourcePoint" />
            <mxPoint x="644" y="245" as="targetPoint" />
          </mxGeometry>
        </mxCell>
        <mxCell id="UbQh1c_g0qJvPAzn56N0-118" value="N" style="edgeLabel;html=1;align=center;verticalAlign=middle;resizable=0;points=[];" parent="UbQh1c_g0qJvPAzn56N0-113" vertex="1" connectable="0">
          <mxGeometry x="0.2093" relative="1" as="geometry">
            <mxPoint x="-23" as="offset" />
          </mxGeometry>
        </mxCell>
        <mxCell id="UbQh1c_g0qJvPAzn56N0-114" value="Lands At" style="rhombus;whiteSpace=wrap;html=1;" parent="1" vertex="1">
          <mxGeometry x="709" y="207" width="80" height="80" as="geometry" />
        </mxCell>
        <mxCell id="UbQh1c_g0qJvPAzn56N0-117" style="edgeStyle=none;rounded=0;orthogonalLoop=1;jettySize=auto;html=1;entryX=1;entryY=0.5;entryDx=0;entryDy=0;endArrow=none;endFill=0;exitX=0;exitY=0.5;exitDx=0;exitDy=0;" parent="1" source="Oi1S64GzBulodLDOKAPP-5" target="UbQh1c_g0qJvPAzn56N0-114" edge="1">
          <mxGeometry relative="1" as="geometry">
            <mxPoint x="870" y="212" as="sourcePoint" />
            <mxPoint x="867" y="232" as="targetPoint" />
          </mxGeometry>
        </mxCell>
        <mxCell id="UbQh1c_g0qJvPAzn56N0-119" value="M" style="edgeLabel;html=1;align=center;verticalAlign=middle;resizable=0;points=[];" parent="UbQh1c_g0qJvPAzn56N0-117" vertex="1" connectable="0">
          <mxGeometry x="-0.2396" relative="1" as="geometry">
            <mxPoint x="3" as="offset" />
          </mxGeometry>
        </mxCell>
        <mxCell id="YCbnCfXl5ar4kh1Ainzk-4" value="Belongs To" style="rhombus;whiteSpace=wrap;html=1;" parent="1" vertex="1">
          <mxGeometry x="424" y="207" width="80" height="80" as="geometry" />
        </mxCell>
        <mxCell id="YCbnCfXl5ar4kh1Ainzk-6" style="edgeStyle=none;rounded=0;orthogonalLoop=1;jettySize=auto;html=1;entryX=1;entryY=0.5;entryDx=0;entryDy=0;endArrow=none;endFill=0;" parent="1" source="UbQh1c_g0qJvPAzn56N0-9" target="YCbnCfXl5ar4kh1Ainzk-4" edge="1">
          <mxGeometry relative="1" as="geometry">
            <mxPoint x="561" y="212" as="sourcePoint" />
            <mxPoint x="569" y="232" as="targetPoint" />
          </mxGeometry>
        </mxCell>
        <mxCell id="YCbnCfXl5ar4kh1Ainzk-9" value="N" style="edgeLabel;html=1;align=center;verticalAlign=middle;resizable=0;points=[];" parent="YCbnCfXl5ar4kh1Ainzk-6" vertex="1" connectable="0">
          <mxGeometry x="-0.2478" y="-2" relative="1" as="geometry">
            <mxPoint x="3" y="1" as="offset" />
          </mxGeometry>
        </mxCell>
        <mxCell id="YCbnCfXl5ar4kh1Ainzk-7" style="edgeStyle=none;rounded=0;orthogonalLoop=1;jettySize=auto;html=1;endArrow=none;endFill=0;entryX=1;entryY=0.5;entryDx=0;entryDy=0;exitX=0;exitY=0.5;exitDx=0;exitDy=0;" parent="1" source="YCbnCfXl5ar4kh1Ainzk-4" target="UbQh1c_g0qJvPAzn56N0-14" edge="1">
          <mxGeometry relative="1" as="geometry">
            <mxPoint x="571" y="222" as="sourcePoint" />
            <mxPoint x="524" y="257" as="targetPoint" />
          </mxGeometry>
        </mxCell>
        <mxCell id="YCbnCfXl5ar4kh1Ainzk-8" value="1" style="edgeLabel;html=1;align=center;verticalAlign=middle;resizable=0;points=[];" parent="YCbnCfXl5ar4kh1Ainzk-7" vertex="1" connectable="0">
          <mxGeometry x="0.1547" y="-2" relative="1" as="geometry">
            <mxPoint x="-2" y="1" as="offset" />
          </mxGeometry>
        </mxCell>
        <mxCell id="YCbnCfXl5ar4kh1Ainzk-11" value="&lt;span style=&quot;text-decoration-style: dashed;&quot;&gt;ARRIVAL_AIRPORT&lt;/span&gt;" style="ellipse;whiteSpace=wrap;html=1;align=center;" parent="1" vertex="1">
          <mxGeometry x="867" y="442" width="120" height="60" as="geometry" />
        </mxCell>
        <mxCell id="YCbnCfXl5ar4kh1Ainzk-14" style="edgeStyle=none;rounded=0;orthogonalLoop=1;jettySize=auto;html=1;endArrow=none;endFill=0;exitX=0;exitY=0.5;exitDx=0;exitDy=0;entryX=1;entryY=0.5;entryDx=0;entryDy=0;" parent="1" source="UbQh1c_g0qJvPAzn56N0-38" target="YCbnCfXl5ar4kh1Ainzk-31" edge="1">
          <mxGeometry relative="1" as="geometry">
            <mxPoint x="495" y="401" as="sourcePoint" />
            <mxPoint x="564" y="427" as="targetPoint" />
          </mxGeometry>
        </mxCell>
        <mxCell id="YCbnCfXl5ar4kh1Ainzk-34" value="N" style="edgeLabel;html=1;align=center;verticalAlign=middle;resizable=0;points=[];" parent="YCbnCfXl5ar4kh1Ainzk-14" vertex="1" connectable="0">
          <mxGeometry x="-0.698" y="-1" relative="1" as="geometry">
            <mxPoint as="offset" />
          </mxGeometry>
        </mxCell>
        <mxCell id="YCbnCfXl5ar4kh1Ainzk-15" value="Departs&lt;div&gt;&lt;span style=&quot;background-color: initial;&quot;&gt;From&lt;/span&gt;&lt;/div&gt;" style="rhombus;whiteSpace=wrap;html=1;" parent="1" vertex="1">
          <mxGeometry x="888" y="312" width="82" height="80" as="geometry" />
        </mxCell>
        <mxCell id="YCbnCfXl5ar4kh1Ainzk-18" style="edgeStyle=orthogonalEdgeStyle;rounded=0;orthogonalLoop=1;jettySize=auto;html=1;entryX=0.75;entryY=1;entryDx=0;entryDy=0;endArrow=none;endFill=0;exitX=0.5;exitY=0;exitDx=0;exitDy=0;" parent="1" source="YCbnCfXl5ar4kh1Ainzk-15" target="Oi1S64GzBulodLDOKAPP-5" edge="1">
          <mxGeometry relative="1" as="geometry">
            <mxPoint x="917" y="307" as="sourcePoint" />
            <mxPoint x="874" y="307" as="targetPoint" />
          </mxGeometry>
        </mxCell>
        <mxCell id="YCbnCfXl5ar4kh1Ainzk-20" value="1" style="edgeLabel;html=1;align=center;verticalAlign=middle;resizable=0;points=[];" parent="YCbnCfXl5ar4kh1Ainzk-18" vertex="1" connectable="0">
          <mxGeometry x="0.6356" y="2" relative="1" as="geometry">
            <mxPoint x="2" y="-3" as="offset" />
          </mxGeometry>
        </mxCell>
        <mxCell id="YCbnCfXl5ar4kh1Ainzk-21" value="&lt;u&gt;Leg_no&lt;/u&gt;" style="ellipse;whiteSpace=wrap;html=1;align=center;" parent="1" vertex="1">
          <mxGeometry x="614" y="442" width="70" height="30" as="geometry" />
        </mxCell>
        <mxCell id="YCbnCfXl5ar4kh1Ainzk-24" value="Arrives&lt;div&gt;At&lt;/div&gt;" style="rhombus;whiteSpace=wrap;html=1;" parent="1" vertex="1">
          <mxGeometry x="804" y="312" width="76" height="80" as="geometry" />
        </mxCell>
        <mxCell id="YCbnCfXl5ar4kh1Ainzk-25" style="edgeStyle=orthogonalEdgeStyle;rounded=0;orthogonalLoop=1;jettySize=auto;html=1;entryX=0.25;entryY=1;entryDx=0;entryDy=0;endArrow=none;endFill=0;" parent="1" source="YCbnCfXl5ar4kh1Ainzk-24" target="Oi1S64GzBulodLDOKAPP-5" edge="1">
          <mxGeometry relative="1" as="geometry" />
        </mxCell>
        <mxCell id="YCbnCfXl5ar4kh1Ainzk-28" value="1" style="edgeLabel;html=1;align=center;verticalAlign=middle;resizable=0;points=[];" parent="YCbnCfXl5ar4kh1Ainzk-25" vertex="1" connectable="0">
          <mxGeometry x="0.6593" relative="1" as="geometry">
            <mxPoint x="-1" as="offset" />
          </mxGeometry>
        </mxCell>
        <mxCell id="YCbnCfXl5ar4kh1Ainzk-29" value="&lt;span style=&quot;text-decoration-style: dashed;&quot;&gt;Airplane_type&lt;/span&gt;" style="ellipse;whiteSpace=wrap;html=1;align=center;" parent="1" vertex="1">
          <mxGeometry x="569.5" y="132" width="100" height="40" as="geometry" />
        </mxCell>
        <mxCell id="YCbnCfXl5ar4kh1Ainzk-30" style="edgeStyle=none;rounded=0;orthogonalLoop=1;jettySize=auto;html=1;entryX=0.5;entryY=0;entryDx=0;entryDy=0;endArrow=none;endFill=0;exitX=0.5;exitY=1;exitDx=0;exitDy=0;" parent="1" source="YCbnCfXl5ar4kh1Ainzk-29" target="UbQh1c_g0qJvPAzn56N0-9" edge="1">
          <mxGeometry relative="1" as="geometry">
            <mxPoint x="561" y="212" as="sourcePoint" />
            <mxPoint x="569" y="232" as="targetPoint" />
          </mxGeometry>
        </mxCell>
        <mxCell id="YCbnCfXl5ar4kh1Ainzk-31" value="Consists&amp;nbsp;&lt;div&gt;Of&lt;/div&gt;" style="rhombus;whiteSpace=wrap;html=1;" parent="1" vertex="1">
          <mxGeometry x="534" y="392" width="80" height="80" as="geometry" />
        </mxCell>
        <mxCell id="YCbnCfXl5ar4kh1Ainzk-32" style="edgeStyle=none;rounded=0;orthogonalLoop=1;jettySize=auto;html=1;endArrow=none;endFill=0;exitX=0;exitY=0.5;exitDx=0;exitDy=0;entryX=1;entryY=0.5;entryDx=0;entryDy=0;" parent="1" source="YCbnCfXl5ar4kh1Ainzk-31" target="UbQh1c_g0qJvPAzn56N0-31" edge="1">
          <mxGeometry relative="1" as="geometry">
            <mxPoint x="719" y="442" as="sourcePoint" />
            <mxPoint x="624" y="442" as="targetPoint" />
          </mxGeometry>
        </mxCell>
        <mxCell id="YCbnCfXl5ar4kh1Ainzk-33" value="1" style="edgeLabel;html=1;align=center;verticalAlign=middle;resizable=0;points=[];" parent="YCbnCfXl5ar4kh1Ainzk-32" vertex="1" connectable="0">
          <mxGeometry x="0.4104" y="-1" relative="1" as="geometry">
            <mxPoint as="offset" />
          </mxGeometry>
        </mxCell>
        <mxCell id="YCbnCfXl5ar4kh1Ainzk-44" value="Instance&lt;div&gt;&lt;span style=&quot;background-color: initial;&quot;&gt;Of&amp;nbsp;&lt;/span&gt;&lt;/div&gt;" style="rhombus;whiteSpace=wrap;html=1;" parent="1" vertex="1">
          <mxGeometry x="697" y="487" width="72" height="80" as="geometry" />
        </mxCell>
        <mxCell id="YCbnCfXl5ar4kh1Ainzk-45" style="edgeStyle=none;rounded=0;orthogonalLoop=1;jettySize=auto;html=1;entryX=0.25;entryY=1;entryDx=0;entryDy=0;endArrow=none;endFill=0;exitX=0.5;exitY=0;exitDx=0;exitDy=0;" parent="1" source="YCbnCfXl5ar4kh1Ainzk-44" target="UbQh1c_g0qJvPAzn56N0-38" edge="1">
          <mxGeometry relative="1" as="geometry">
            <mxPoint x="694" y="467" as="sourcePoint" />
            <mxPoint x="719" y="455" as="targetPoint" />
          </mxGeometry>
        </mxCell>
        <mxCell id="YCbnCfXl5ar4kh1Ainzk-48" value="1" style="edgeLabel;html=1;align=center;verticalAlign=middle;resizable=0;points=[];" parent="YCbnCfXl5ar4kh1Ainzk-45" vertex="1" connectable="0">
          <mxGeometry x="0.502" y="1" relative="1" as="geometry">
            <mxPoint as="offset" />
          </mxGeometry>
        </mxCell>
        <mxCell id="YCbnCfXl5ar4kh1Ainzk-46" style="edgeStyle=none;rounded=0;orthogonalLoop=1;jettySize=auto;html=1;entryX=0.5;entryY=1;entryDx=0;entryDy=0;endArrow=none;endFill=0;exitX=0.75;exitY=0;exitDx=0;exitDy=0;shape=link;" parent="1" source="UbQh1c_g0qJvPAzn56N0-84" target="YCbnCfXl5ar4kh1Ainzk-44" edge="1">
          <mxGeometry relative="1" as="geometry">
            <mxPoint x="659" y="552" as="sourcePoint" />
            <mxPoint x="697" y="602" as="targetPoint" />
          </mxGeometry>
        </mxCell>
        <mxCell id="YCbnCfXl5ar4kh1Ainzk-47" value="N" style="edgeLabel;html=1;align=center;verticalAlign=middle;resizable=0;points=[];" parent="YCbnCfXl5ar4kh1Ainzk-46" vertex="1" connectable="0">
          <mxGeometry x="-0.2443" relative="1" as="geometry">
            <mxPoint x="-1" as="offset" />
          </mxGeometry>
        </mxCell>
        <mxCell id="YCbnCfXl5ar4kh1Ainzk-49" value="Reserves" style="rhombus;whiteSpace=wrap;html=1;" parent="1" vertex="1">
          <mxGeometry x="524" y="577" width="80" height="80" as="geometry" />
        </mxCell>
        <mxCell id="YCbnCfXl5ar4kh1Ainzk-50" style="edgeStyle=none;rounded=0;orthogonalLoop=1;jettySize=auto;html=1;entryX=1;entryY=0.5;entryDx=0;entryDy=0;endArrow=none;endFill=0;exitX=0;exitY=0.5;exitDx=0;exitDy=0;shape=link;" parent="1" source="UbQh1c_g0qJvPAzn56N0-84" target="YCbnCfXl5ar4kh1Ainzk-49" edge="1">
          <mxGeometry relative="1" as="geometry">
            <mxPoint x="660" y="550" as="sourcePoint" />
            <mxPoint x="694" y="602" as="targetPoint" />
          </mxGeometry>
        </mxCell>
        <mxCell id="YCbnCfXl5ar4kh1Ainzk-53" value="1" style="edgeLabel;html=1;align=center;verticalAlign=middle;resizable=0;points=[];" parent="YCbnCfXl5ar4kh1Ainzk-50" vertex="1" connectable="0">
          <mxGeometry x="-0.7585" relative="1" as="geometry">
            <mxPoint as="offset" />
          </mxGeometry>
        </mxCell>
        <mxCell id="YCbnCfXl5ar4kh1Ainzk-51" style="edgeStyle=none;rounded=0;orthogonalLoop=1;jettySize=auto;html=1;entryX=1;entryY=0.5;entryDx=0;entryDy=0;endArrow=none;endFill=0;shape=link;exitX=0;exitY=0.5;exitDx=0;exitDy=0;" parent="1" source="YCbnCfXl5ar4kh1Ainzk-49" target="UbQh1c_g0qJvPAzn56N0-96" edge="1">
          <mxGeometry relative="1" as="geometry">
            <mxPoint x="524" y="617" as="sourcePoint" />
            <mxPoint x="614" y="627" as="targetPoint" />
          </mxGeometry>
        </mxCell>
        <mxCell id="YCbnCfXl5ar4kh1Ainzk-52" value="N" style="edgeLabel;html=1;align=center;verticalAlign=middle;resizable=0;points=[];" parent="YCbnCfXl5ar4kh1Ainzk-51" vertex="1" connectable="0">
          <mxGeometry x="0.3379" y="-3" relative="1" as="geometry">
            <mxPoint x="-6" y="3" as="offset" />
          </mxGeometry>
        </mxCell>
        <mxCell id="YCbnCfXl5ar4kh1Ainzk-55" style="edgeStyle=orthogonalEdgeStyle;rounded=0;orthogonalLoop=1;jettySize=auto;html=1;entryX=0;entryY=0.5;entryDx=0;entryDy=0;endArrow=none;endFill=0;" parent="1" source="YCbnCfXl5ar4kh1Ainzk-54" target="UbQh1c_g0qJvPAzn56N0-31" edge="1">
          <mxGeometry relative="1" as="geometry" />
        </mxCell>
        <mxCell id="YCbnCfXl5ar4kh1Ainzk-56" value="1" style="edgeLabel;html=1;align=center;verticalAlign=middle;resizable=0;points=[];" parent="YCbnCfXl5ar4kh1Ainzk-55" vertex="1" connectable="0">
          <mxGeometry x="-0.3881" relative="1" as="geometry">
            <mxPoint as="offset" />
          </mxGeometry>
        </mxCell>
        <mxCell id="YCbnCfXl5ar4kh1Ainzk-54" value="Associated&lt;div&gt;To&lt;/div&gt;" style="rhombus;whiteSpace=wrap;html=1;" parent="1" vertex="1">
          <mxGeometry x="274" y="387" width="90" height="90" as="geometry" />
        </mxCell>
        <mxCell id="YCbnCfXl5ar4kh1Ainzk-57" style="edgeStyle=none;rounded=0;orthogonalLoop=1;jettySize=auto;html=1;entryX=1;entryY=0.5;entryDx=0;entryDy=0;endArrow=none;endFill=0;exitX=0;exitY=0.5;exitDx=0;exitDy=0;" parent="1" source="YCbnCfXl5ar4kh1Ainzk-54" target="UbQh1c_g0qJvPAzn56N0-103" edge="1">
          <mxGeometry relative="1" as="geometry">
            <mxPoint x="313" y="525" as="sourcePoint" />
            <mxPoint x="278" y="525" as="targetPoint" />
          </mxGeometry>
        </mxCell>
        <mxCell id="YCbnCfXl5ar4kh1Ainzk-58" value="N" style="edgeLabel;html=1;align=center;verticalAlign=middle;resizable=0;points=[];" parent="YCbnCfXl5ar4kh1Ainzk-57" vertex="1" connectable="0">
          <mxGeometry x="0.3379" y="-3" relative="1" as="geometry">
            <mxPoint x="-3" y="3" as="offset" />
          </mxGeometry>
        </mxCell>
        <mxCell id="YCbnCfXl5ar4kh1Ainzk-59" value="&lt;h1 style=&quot;margin-top: 0px;&quot;&gt;Assumptions&lt;/h1&gt;&lt;p&gt;&lt;/p&gt;&lt;ul&gt;&lt;li&gt;Can&#39;t have Leg Instance without a Flight Leg thus Leg Instance is weak&amp;nbsp;&lt;/li&gt;&lt;li&gt;Can&#39;t have Reservation without a Leg Instance&amp;nbsp;thus Reservation&amp;nbsp;is weak&amp;nbsp;&amp;nbsp;&lt;/li&gt;&lt;/ul&gt;&lt;p&gt;&lt;/p&gt;" style="text;html=1;whiteSpace=wrap;overflow=hidden;rounded=0;" parent="1" vertex="1">
          <mxGeometry x="48.5" y="642" width="445.5" height="80" as="geometry" />
        </mxCell>
        <mxCell id="YCbnCfXl5ar4kh1Ainzk-60" value="&lt;h1 style=&quot;margin-top: 0px;&quot;&gt;Airline ERD&amp;nbsp;&lt;/h1&gt;&lt;p&gt;By Amir Abdullahi&lt;/p&gt;" style="text;html=1;whiteSpace=wrap;overflow=hidden;rounded=0;" parent="1" vertex="1">
          <mxGeometry x="44" y="128" width="180" height="84" as="geometry" />
        </mxCell>
      </root>
    </mxGraphModel>
  </diagram>
</mxfile>
